<?xml version="1.0" standalone="no"?>
<!DOCTYPE svg PUBLIC "-//W3C//DTD SVG 20010904//EN"
 "http://www.w3.org/TR/2001/REC-SVG-20010904/DTD/svg10.dtd">
<svg version="1.0" xmlns="http://www.w3.org/2000/svg"
 width="364.000000pt" height="367.000000pt" viewBox="0 0 364.000000 367.000000"
 preserveAspectRatio="xMidYMid meet">
<metadata>
Created by potrace 1.10, written by Peter Selinger 2001-2011
</metadata>
<g transform="translate(0.000000,367.000000) scale(0.100000,-0.100000)"
fill="#000000" stroke="none">
<path d="M1270 3198 c-34 -18 -38 -53 -7 -73 19 -12 48 -15 128 -14 120 2 181
-15 273 -76 58 -38 136 -119 136 -140 0 -7 -9 -10 -23 -8 -31 6 -115 -52 -150
-104 -16 -24 -34 -43 -41 -43 -7 0 -31 -16 -54 -36 -34 -29 -42 -42 -42 -70 0
-48 38 -156 62 -177 18 -15 19 -24 13 -72 -3 -30 -10 -57 -14 -60 -4 -2 -57
39 -117 91 -179 156 -319 238 -462 270 -92 20 -197 14 -265 -15 -42 -18 -48
-24 -41 -43 27 -90 87 -180 180 -269 129 -123 240 -178 400 -200 49 -6 91 -13
93 -15 2 -2 -8 -8 -22 -13 -33 -13 -182 12 -246 40 -27 12 -48 16 -54 10 -5
-5 -14 -44 -19 -88 -14 -109 -22 -120 -26 -34 -2 46 3 90 12 117 12 36 12 45
1 54 -8 7 -19 9 -24 5 -18 -11 -42 -111 -45 -187 -4 -78 24 -209 50 -239 8 -8
14 -21 14 -27 0 -6 12 -20 26 -31 24 -19 30 -39 60 -188 18 -93 40 -190 48
-218 26 -84 34 -78 -141 -103 -86 -12 -160 -25 -164 -29 -6 -7 90 -509 105
-548 5 -14 14 -16 44 -12 20 3 130 16 244 28 238 24 207 31 340 -73 95 -73
278 -188 301 -188 34 0 246 132 367 229 75 61 60 60 340 26 113 -13 208 -21
212 -17 4 4 18 79 33 167 14 88 32 198 40 245 16 93 19 150 8 150 -8 0 -113
16 -170 25 -40 7 -40 11 -8 122 14 49 42 166 61 262 30 152 33 177 20 189 -12
12 -12 19 0 47 33 79 36 223 6 319 -18 61 -27 72 -50 57 -11 -7 -11 -17 2 -61
18 -60 21 -165 6 -175 -6 -4 -10 5 -10 21 0 39 -20 147 -30 164 -7 11 -14 10
-44 -4 -94 -44 -217 -68 -252 -48 -16 9 -13 11 21 17 215 33 341 104 469 263
55 68 116 181 116 215 0 25 -75 56 -153 64 -183 17 -401 -94 -639 -325 -98
-95 -137 -117 -79 -45 36 45 61 111 61 163 0 23 7 43 17 51 26 22 43 74 43
133 0 47 -4 57 -26 75 -15 12 -33 21 -42 21 -8 0 -31 15 -51 33 -20 17 -47 39
-60 47 -23 16 -23 16 -7 49 10 18 37 53 62 77 33 34 51 44 76 44 49 0 83 21
83 50 0 37 -43 49 -94 25 -49 -22 -131 -105 -161 -164 -16 -33 -25 -41 -38
-36 -9 4 -39 9 -65 10 -46 3 -52 7 -122 82 -85 91 -158 138 -260 168 -40 11
-80 27 -89 34 -23 19 -135 25 -166 9z m630 -332 c0 -3 -4 -8 -10 -11 -5 -3
-10 -1 -10 4 0 6 5 11 10 11 6 0 10 -2 10 -4z m34 -9 c-6 -15 85 -51 108 -42
8 3 21 -2 29 -11 13 -16 12 -17 -11 -11 -14 4 -55 10 -92 13 -71 7 -79 15 -51
46 19 21 24 23 17 5z m-109 -16 c3 -6 -5 -15 -17 -22 -35 -19 -138 -48 -138
-39 0 13 65 58 91 63 42 8 58 7 64 -2z m263 -112 c59 -15 72 -25 72 -56 0 -21
-2 -23 -22 -12 -30 16 -113 79 -104 79 4 0 28 -5 54 -11z m-330 -34 c-21 -18
-38 -37 -38 -41 0 -3 18 10 40 30 22 20 43 36 46 36 3 0 -25 -35 -62 -77 -37
-43 -76 -92 -87 -110 -11 -19 -27 -33 -38 -33 -29 0 -59 57 -59 111 0 52 3 55
125 95 103 34 119 32 73 -11z m-771 -60 c123 -29 254 -111 468 -294 101 -86
102 -108 2 -63 -87 40 -180 101 -307 202 -115 92 -191 130 -260 129 l-45 -1
57 -14 c78 -19 120 -42 208 -116 41 -35 89 -73 105 -85 l30 -22 -60 14 c-65
16 -175 20 -140 5 11 -4 49 -13 85 -20 82 -15 142 -36 253 -90 87 -42 114 -66
41 -35 -64 26 -368 84 -381 72 -4 -5 64 -24 112 -32 76 -12 220 -48 260 -66
l39 -18 -29 -7 c-47 -12 -234 12 -308 39 -75 27 -125 59 -200 127 -52 46 -131
140 -124 146 2 3 21 -3 41 -11 50 -21 213 -66 255 -70 58 -6 21 11 -107 49
-177 52 -264 101 -249 140 14 35 148 46 254 21z m1921 -4 c29 -15 28 -24 -8
-59 -32 -33 -135 -75 -272 -113 -49 -13 -88 -28 -88 -32 0 -22 275 53 318 86
24 19 11 -7 -30 -60 -63 -83 -155 -160 -233 -199 -99 -48 -295 -80 -335 -54
-24 15 63 47 217 80 75 16 139 32 142 36 3 3 -7 4 -24 1 -16 -3 -57 -9 -91
-12 -33 -4 -104 -17 -157 -29 -54 -13 -97 -22 -97 -20 0 2 35 21 78 43 74 37
164 68 262 89 l45 10 -45 1 c-41 0 -101 -9 -155 -26 -11 -3 5 14 35 37 30 24
77 63 104 88 56 49 110 79 176 98 l45 12 -36 1 c-64 2 -122 -27 -229 -115
-180 -146 -368 -260 -391 -237 -10 10 58 73 211 194 152 121 225 163 327 189
49 12 203 6 231 -9z m-897 -40 c83 -88 56 -238 -49 -269 -101 -30 -226 -2
-304 68 l-43 39 44 1 c80 0 151 30 206 85 28 27 58 65 67 83 9 17 22 32 29 32
7 0 29 -18 50 -39z m110 -72 c16 -30 5 -98 -20 -123 l-21 -20 0 56 c0 31 5 60
10 63 6 4 8 15 5 26 -9 26 12 24 26 -2z m-450 -234 c61 -64 136 -105 193 -105
23 0 68 11 101 25 45 18 61 21 67 12 20 -31 -3 -97 -50 -141 -24 -22 -37 -27
-59 -23 -15 4 -42 9 -59 13 -20 4 -42 0 -62 -10 -44 -23 -62 -20 -106 16 -40
33 -75 96 -76 136 0 24 -15 30 -23 10 -3 -7 -6 3 -6 23 -1 32 16 99 24 99 2 0
27 -25 56 -55z m592 -127 c220 -112 274 -168 212 -216 -55 -44 -142 -49 -298
-20 -63 12 -75 24 -57 57 6 12 8 21 6 21 -14 0 -51 -52 -82 -112 -19 -38 -38
-68 -43 -68 -30 0 -10 125 29 180 17 24 29 27 162 43 78 10 159 18 178 20 l35
2 -25 14 c-15 9 -59 15 -112 16 -95 3 -135 19 -169 65 -16 22 -17 80 -2 80 3
0 77 -37 166 -82z m-733 14 c0 -17 -10 -37 -23 -50 -26 -25 -192 -102 -219
-102 -9 0 -19 -3 -21 -7 -3 -5 61 -6 142 -5 l148 4 28 -34 c32 -37 75 -124 75
-150 0 -27 -27 -21 -47 10 -43 69 -85 112 -109 112 l-25 0 27 -23 28 -24 -64
-21 c-91 -31 -198 -30 -267 3 -29 13 -53 29 -53 34 0 27 36 80 77 111 40 31
277 166 296 169 4 1 7 -12 7 -27z m365 -166 c54 -23 38 -58 -16 -38 -18 7 -39
4 -86 -16 -57 -23 -93 -25 -93 -4 0 10 126 70 148 71 7 1 28 -6 47 -13z m115
7 c0 -6 -53 -125 -68 -152 -14 -25 -32 -24 -32 1 0 43 31 117 57 138 26 20 43
26 43 13z m-336 -61 c25 -36 46 -91 46 -119 0 -28 -19 -11 -45 40 -15 28 -38
67 -52 85 l-24 32 24 0 c17 0 32 -12 51 -38z m896 -140 c118 -26 125 -30 128
-53 3 -29 -58 -320 -89 -422 -18 -61 -40 -90 -56 -74 -3 4 8 57 25 119 39 143
75 319 70 349 -3 20 -19 26 -208 66 -113 25 -208 48 -212 51 -16 16 227 -10
342 -36z m-1353 -29 c3 -7 -11 -15 -34 -19 -21 -4 -43 -11 -49 -15 -13 -11 10
-155 56 -347 17 -68 30 -125 30 -128 0 -12 -31 -2 -39 14 -22 42 -101 413
-101 479 0 18 7 23 38 26 59 7 95 3 99 -10z m433 -20 c-1 -5 -15 -107 -33
-228 l-33 -220 -49 0 -49 0 -22 100 c-12 55 -23 102 -24 105 -2 3 -8 -44 -14
-105 l-11 -110 -44 0 -44 0 -57 195 c-31 107 -60 208 -64 223 l-7 28 53 -3 52
-3 27 -103 c29 -116 30 -115 45 46 l7 72 43 0 c32 0 44 -4 48 -17 2 -10 12
-53 22 -95 10 -43 21 -78 24 -78 4 0 10 35 14 78 11 123 10 122 67 122 27 0
49 -3 49 -7z m268 -215 c29 -123 52 -226 52 -230 0 -5 -22 -8 -49 -8 -46 0
-49 2 -57 33 -9 31 -11 32 -64 32 -53 0 -55 -1 -58 -27 -3 -27 -6 -28 -56 -28
l-53 0 53 213 c30 116 56 218 59 225 3 8 25 12 63 12 l59 0 51 -222z m276 191
c35 -28 56 -70 56 -114 0 -34 -1 -35 -41 -35 -36 0 -41 3 -51 30 -17 50 -86
53 -76 4 2 -11 31 -34 68 -54 77 -42 104 -83 95 -144 -8 -57 -30 -91 -69 -110
-96 -45 -206 19 -206 121 0 32 1 33 43 33 38 0 44 -3 54 -31 10 -27 16 -30 45
-27 51 5 44 36 -15 68 -98 52 -129 107 -107 189 16 59 59 91 124 91 39 0 61
-6 80 -21z m231 -4 c77 -9 108 -26 129 -69 21 -45 20 -101 -3 -152 -26 -57
-54 -74 -122 -74 l-57 0 -7 -75 -7 -75 -36 0 c-68 0 -66 -35 -16 408 5 51 7
53 32 48 15 -3 54 -8 87 -11z m-596 -501 c63 -45 67 -202 6 -237 -11 -6 -8
-23 16 -89 16 -46 29 -88 29 -95 0 -8 -14 -13 -39 -13 l-40 0 -28 87 c-38 118
-53 120 -53 4 l0 -91 -40 0 -40 0 0 113 c0 61 -3 163 -7 225 l-6 112 89 0 c67
0 96 -4 113 -16z m271 -2 c61 -30 72 -67 65 -212 -10 -196 -28 -220 -169 -220
l-89 0 6 73 c4 39 10 141 13 225 l7 152 66 0 c43 0 78 -6 101 -18z m-552 -201
c34 -115 62 -214 62 -220 0 -6 -18 -11 -44 -11 -39 0 -45 3 -48 23 -3 19 -10
22 -55 25 l-52 3 -7 -35 c-6 -35 -8 -36 -48 -36 l-43 0 33 228 c19 125 34 228
34 230 0 1 24 2 53 2 l53 0 62 -209z m803 194 c47 -4 90 -10 96 -13 6 -4 8
-25 4 -52 l-6 -44 -55 2 c-30 2 -63 5 -72 8 -15 4 -18 -1 -18 -29 0 -36 15
-47 69 -47 19 0 22 -4 17 -22 -3 -13 -6 -36 -6 -52 0 -27 -1 -28 -45 -24 -47
3 -55 -3 -55 -47 0 -22 5 -24 70 -31 76 -7 77 -8 63 -74 l-6 -33 -94 7 c-52 4
-102 10 -110 13 -17 7 -17 15 12 288 8 77 15 146 15 153 0 8 7 11 18 8 9 -2
56 -7 103 -11z m-1072 -92 c-1 -128 -13 -351 -19 -356 -3 -2 -21 -7 -40 -11
l-36 -6 -28 97 c-16 54 -33 105 -38 113 -5 9 -8 -33 -7 -100 l1 -114 -32 -9
c-18 -4 -36 -5 -40 0 -6 7 -107 283 -143 390 -12 39 -12 39 35 46 l37 6 31
-92 c45 -137 50 -138 50 -11 l0 112 33 5 c17 2 35 3 38 1 3 -1 18 -47 34 -100
33 -113 43 -107 44 28 1 92 2 94 59 97 21 1 22 -1 21 -96z m1285 67 c20 0 25
-11 50 -122 32 -137 36 -137 56 5 7 48 15 89 19 91 3 2 21 1 39 -1 27 -4 32
-9 32 -32 -1 -34 -65 -409 -71 -415 -3 -3 -21 -3 -40 0 l-35 6 -29 121 c-32
136 -28 138 -55 -31 l-12 -74 -37 7 c-20 4 -38 8 -40 10 -3 4 52 365 65 423 3
16 10 22 20 18 9 -3 26 -6 38 -6z m-946 -543 c82 -63 206 -137 227 -137 23 0
134 65 234 137 43 30 85 53 99 53 l25 0 -23 -25 c-29 -30 -190 -139 -276 -186
l-62 -34 -88 54 c-102 62 -253 172 -254 185 0 19 65 -6 118 -47z"/>
<path d="M1970 2596 c0 -9 5 -16 10 -16 6 0 10 4 10 9 0 6 -4 13 -10 16 -5 3
-10 -1 -10 -9z"/>
<path d="M1787 1545 c-9 -38 -14 -71 -12 -73 1 -2 16 -2 32 0 l30 3 -17 70
-16 70 -17 -70z"/>
<path d="M2390 1584 l0 -45 38 3 c32 3 37 7 40 31 4 37 -13 57 -49 57 -28 0
-29 -2 -29 -46z"/>
<path d="M1720 1110 c0 -39 1 -40 35 -40 29 0 36 4 41 25 8 33 -11 55 -47 55
-27 0 -29 -3 -29 -40z"/>
<path d="M2010 1117 c0 -19 -3 -75 -6 -125 l-7 -92 31 0 c40 0 48 15 56 118 9
96 -5 132 -49 132 -22 0 -25 -5 -25 -33z"/>
<path d="M1437 1060 c-20 -123 -20 -120 13 -120 36 0 37 11 11 95 l-19 60 -5
-35z"/>
</g>
</svg>
